<mxfile host="app.diagrams.net" agent="Mozilla/5.0 (Windows NT 10.0; Win64; x64) AppleWebKit/537.36 (KHTML, like Gecko) Chrome/135.0.0.0 Safari/537.36 Edg/135.0.0.0" version="26.2.9" pages="2">
  <diagram name="Business Flow" id="1Ak5zS4Y-1Fww06_obJ6">
    <mxGraphModel dx="1373" dy="788" grid="1" gridSize="10" guides="1" tooltips="1" connect="1" arrows="1" fold="1" page="1" pageScale="1" pageWidth="850" pageHeight="1100" math="0" shadow="0">
      <root>
        <mxCell id="0" />
        <mxCell id="1" parent="0" />
        <mxCell id="2ZeNQ62hrx577fJIW5an-1" value="Graph Schema" style="rounded=1;whiteSpace=wrap;html=1;" vertex="1" parent="1">
          <mxGeometry x="40" y="40" width="120" height="60" as="geometry" />
        </mxCell>
        <mxCell id="2ZeNQ62hrx577fJIW5an-2" value="Graph Documentation" style="rounded=1;whiteSpace=wrap;html=1;" vertex="1" parent="1">
          <mxGeometry x="200" y="40" width="120" height="60" as="geometry" />
        </mxCell>
        <mxCell id="2ZeNQ62hrx577fJIW5an-3" value="Admin" style="shape=umlActor;verticalLabelPosition=bottom;verticalAlign=top;html=1;outlineConnect=0;" vertex="1" parent="1">
          <mxGeometry x="170" y="200" width="30" height="60" as="geometry" />
        </mxCell>
        <mxCell id="2ZeNQ62hrx577fJIW5an-4" style="edgeStyle=orthogonalEdgeStyle;rounded=0;orthogonalLoop=1;jettySize=auto;html=1;entryX=0.5;entryY=0;entryDx=0;entryDy=0;entryPerimeter=0;exitX=0.5;exitY=1;exitDx=0;exitDy=0;" edge="1" parent="1" source="2ZeNQ62hrx577fJIW5an-1" target="2ZeNQ62hrx577fJIW5an-3">
          <mxGeometry relative="1" as="geometry" />
        </mxCell>
        <mxCell id="2ZeNQ62hrx577fJIW5an-5" style="edgeStyle=orthogonalEdgeStyle;rounded=0;orthogonalLoop=1;jettySize=auto;html=1;entryX=0.5;entryY=0;entryDx=0;entryDy=0;entryPerimeter=0;" edge="1" parent="1" source="2ZeNQ62hrx577fJIW5an-2" target="2ZeNQ62hrx577fJIW5an-3">
          <mxGeometry relative="1" as="geometry" />
        </mxCell>
        <mxCell id="2ZeNQ62hrx577fJIW5an-6" value="1 Read Schema" style="text;html=1;align=center;verticalAlign=middle;whiteSpace=wrap;rounded=0;" vertex="1" parent="1">
          <mxGeometry x="155" y="120" width="60" height="30" as="geometry" />
        </mxCell>
        <mxCell id="2ZeNQ62hrx577fJIW5an-8" value="Microsoft Graph" style="verticalLabelPosition=bottom;html=1;verticalAlign=top;align=center;shape=mxgraph.azure.azure_website;pointerEvents=1;fillColor=#dae8fc;strokeColor=#6c8ebf;" vertex="1" parent="1">
          <mxGeometry x="160" y="340" width="50" height="50" as="geometry" />
        </mxCell>
        <mxCell id="2ZeNQ62hrx577fJIW5an-9" value="Cloud PC Provisioning Policy Service" style="verticalLabelPosition=bottom;html=1;verticalAlign=top;align=center;strokeColor=#6c8ebf;fillColor=#dae8fc;shape=mxgraph.azure.cloud_service;" vertex="1" parent="1">
          <mxGeometry x="160" y="480" width="50" height="40" as="geometry" />
        </mxCell>
        <mxCell id="2ZeNQ62hrx577fJIW5an-10" style="edgeStyle=orthogonalEdgeStyle;rounded=0;orthogonalLoop=1;jettySize=auto;html=1;entryX=0.5;entryY=0;entryDx=0;entryDy=0;entryPerimeter=0;" edge="1" parent="1" source="2ZeNQ62hrx577fJIW5an-3" target="2ZeNQ62hrx577fJIW5an-8">
          <mxGeometry relative="1" as="geometry" />
        </mxCell>
        <mxCell id="2ZeNQ62hrx577fJIW5an-11" style="edgeStyle=orthogonalEdgeStyle;rounded=0;orthogonalLoop=1;jettySize=auto;html=1;entryX=0.5;entryY=0.09;entryDx=0;entryDy=0;entryPerimeter=0;" edge="1" parent="1" source="2ZeNQ62hrx577fJIW5an-8" target="2ZeNQ62hrx577fJIW5an-9">
          <mxGeometry relative="1" as="geometry" />
        </mxCell>
        <mxCell id="2ZeNQ62hrx577fJIW5an-12" value="Graph Schema" style="rounded=1;whiteSpace=wrap;html=1;" vertex="1" parent="1">
          <mxGeometry x="440" y="40" width="120" height="60" as="geometry" />
        </mxCell>
        <mxCell id="2ZeNQ62hrx577fJIW5an-13" value="Graph Documentation" style="rounded=1;whiteSpace=wrap;html=1;" vertex="1" parent="1">
          <mxGeometry x="600" y="40" width="120" height="60" as="geometry" />
        </mxCell>
        <mxCell id="2ZeNQ62hrx577fJIW5an-14" value="Admin" style="shape=umlActor;verticalLabelPosition=bottom;verticalAlign=top;html=1;outlineConnect=0;" vertex="1" parent="1">
          <mxGeometry x="570" y="200" width="30" height="60" as="geometry" />
        </mxCell>
        <mxCell id="2ZeNQ62hrx577fJIW5an-15" style="edgeStyle=orthogonalEdgeStyle;rounded=0;orthogonalLoop=1;jettySize=auto;html=1;entryX=0.5;entryY=0;entryDx=0;entryDy=0;entryPerimeter=0;exitX=0.5;exitY=1;exitDx=0;exitDy=0;" edge="1" parent="1" source="2ZeNQ62hrx577fJIW5an-12" target="2ZeNQ62hrx577fJIW5an-14">
          <mxGeometry relative="1" as="geometry" />
        </mxCell>
        <mxCell id="2ZeNQ62hrx577fJIW5an-16" style="edgeStyle=orthogonalEdgeStyle;rounded=0;orthogonalLoop=1;jettySize=auto;html=1;entryX=0.5;entryY=0;entryDx=0;entryDy=0;entryPerimeter=0;" edge="1" parent="1" source="2ZeNQ62hrx577fJIW5an-13" target="2ZeNQ62hrx577fJIW5an-14">
          <mxGeometry relative="1" as="geometry" />
        </mxCell>
        <mxCell id="2ZeNQ62hrx577fJIW5an-17" value="1 Read Schema" style="text;html=1;align=center;verticalAlign=middle;whiteSpace=wrap;rounded=0;" vertex="1" parent="1">
          <mxGeometry x="555" y="120" width="60" height="30" as="geometry" />
        </mxCell>
        <mxCell id="2ZeNQ62hrx577fJIW5an-23" style="edgeStyle=orthogonalEdgeStyle;rounded=0;orthogonalLoop=1;jettySize=auto;html=1;entryX=1;entryY=0.3333333333333333;entryDx=0;entryDy=0;entryPerimeter=0;" edge="1" parent="1" source="2ZeNQ62hrx577fJIW5an-18" target="2ZeNQ62hrx577fJIW5an-14">
          <mxGeometry relative="1" as="geometry">
            <mxPoint x="720" y="250" as="targetPoint" />
            <Array as="points">
              <mxPoint x="720" y="360" />
              <mxPoint x="720" y="220" />
            </Array>
          </mxGeometry>
        </mxCell>
        <mxCell id="2ZeNQ62hrx577fJIW5an-18" value="Microsoft Graph" style="verticalLabelPosition=bottom;html=1;verticalAlign=top;align=center;shape=mxgraph.azure.azure_website;pointerEvents=1;fillColor=#dae8fc;strokeColor=#6c8ebf;" vertex="1" parent="1">
          <mxGeometry x="560" y="340" width="50" height="50" as="geometry" />
        </mxCell>
        <mxCell id="2ZeNQ62hrx577fJIW5an-19" value="Cloud PC Provisioning Policy Service" style="verticalLabelPosition=bottom;html=1;verticalAlign=top;align=center;strokeColor=#6c8ebf;fillColor=#dae8fc;shape=mxgraph.azure.cloud_service;" vertex="1" parent="1">
          <mxGeometry x="560" y="480" width="50" height="40" as="geometry" />
        </mxCell>
        <mxCell id="2ZeNQ62hrx577fJIW5an-20" style="edgeStyle=orthogonalEdgeStyle;rounded=0;orthogonalLoop=1;jettySize=auto;html=1;entryX=0.5;entryY=0;entryDx=0;entryDy=0;entryPerimeter=0;" edge="1" parent="1" source="2ZeNQ62hrx577fJIW5an-14" target="2ZeNQ62hrx577fJIW5an-18">
          <mxGeometry relative="1" as="geometry" />
        </mxCell>
        <mxCell id="2ZeNQ62hrx577fJIW5an-21" style="edgeStyle=orthogonalEdgeStyle;rounded=0;orthogonalLoop=1;jettySize=auto;html=1;entryX=0.5;entryY=0.09;entryDx=0;entryDy=0;entryPerimeter=0;" edge="1" parent="1" source="2ZeNQ62hrx577fJIW5an-18" target="2ZeNQ62hrx577fJIW5an-19">
          <mxGeometry relative="1" as="geometry" />
        </mxCell>
        <mxCell id="2ZeNQ62hrx577fJIW5an-22" value="2 Send Request" style="text;html=1;align=center;verticalAlign=middle;whiteSpace=wrap;rounded=0;" vertex="1" parent="1">
          <mxGeometry x="190" y="290" width="60" height="30" as="geometry" />
        </mxCell>
        <mxCell id="2ZeNQ62hrx577fJIW5an-24" value="2 Retrieve Definition" style="text;html=1;align=center;verticalAlign=middle;whiteSpace=wrap;rounded=0;" vertex="1" parent="1">
          <mxGeometry x="660" y="290" width="60" height="30" as="geometry" />
        </mxCell>
        <mxCell id="2ZeNQ62hrx577fJIW5an-25" value="3 Send Request" style="text;html=1;align=center;verticalAlign=middle;whiteSpace=wrap;rounded=0;" vertex="1" parent="1">
          <mxGeometry x="520" y="290" width="60" height="30" as="geometry" />
        </mxCell>
        <mxCell id="2ZeNQ62hrx577fJIW5an-26" value="" style="shape=flexArrow;endArrow=classic;html=1;rounded=0;" edge="1" parent="1">
          <mxGeometry width="50" height="50" relative="1" as="geometry">
            <mxPoint x="340" y="290" as="sourcePoint" />
            <mxPoint x="470" y="290" as="targetPoint" />
          </mxGeometry>
        </mxCell>
        <mxCell id="2ZeNQ62hrx577fJIW5an-27" value="Change to dynamic Schema" style="text;html=1;align=center;verticalAlign=middle;whiteSpace=wrap;rounded=0;" vertex="1" parent="1">
          <mxGeometry x="370" y="320" width="60" height="30" as="geometry" />
        </mxCell>
      </root>
    </mxGraphModel>
  </diagram>
  <diagram id="X068aY7VY64BUAQYXTbB" name="Component Relationship">
    <mxGraphModel dx="2112" dy="1212" grid="1" gridSize="10" guides="1" tooltips="1" connect="1" arrows="1" fold="1" page="1" pageScale="1" pageWidth="850" pageHeight="1100" math="0" shadow="0">
      <root>
        <mxCell id="0" />
        <mxCell id="1" parent="0" />
        <mxCell id="SCjaSDXvU5PeOb5kUxLL-2" value="PolicyTemplate" style="shape=table;startSize=25;container=1;collapsible=0;childLayout=tableLayout;fixedRows=1;rowLines=1;fontStyle=1;align=center;resizeLast=1;" vertex="1" parent="1">
          <mxGeometry x="20" y="320" width="288" height="135" as="geometry" />
        </mxCell>
        <mxCell id="SCjaSDXvU5PeOb5kUxLL-3" style="shape=tableRow;horizontal=0;startSize=0;swimlaneHead=0;swimlaneBody=0;fillColor=none;collapsible=0;dropTarget=0;points=[[0,0.5],[1,0.5]];portConstraint=eastwest;top=0;left=0;right=0;bottom=0;" vertex="1" parent="SCjaSDXvU5PeOb5kUxLL-2">
          <mxGeometry y="25" width="288" height="22" as="geometry" />
        </mxCell>
        <mxCell id="SCjaSDXvU5PeOb5kUxLL-4" value="Id" style="shape=partialRectangle;connectable=0;fillColor=none;top=0;left=0;bottom=0;right=0;align=left;spacingLeft=2;overflow=hidden;fontSize=11;" vertex="1" parent="SCjaSDXvU5PeOb5kUxLL-3">
          <mxGeometry width="108" height="22" as="geometry">
            <mxRectangle width="108" height="22" as="alternateBounds" />
          </mxGeometry>
        </mxCell>
        <mxCell id="SCjaSDXvU5PeOb5kUxLL-5" value="Guid" style="shape=partialRectangle;connectable=0;fillColor=none;top=0;left=0;bottom=0;right=0;align=left;spacingLeft=2;overflow=hidden;fontSize=11;" vertex="1" parent="SCjaSDXvU5PeOb5kUxLL-3">
          <mxGeometry x="108" width="180" height="22" as="geometry">
            <mxRectangle width="180" height="22" as="alternateBounds" />
          </mxGeometry>
        </mxCell>
        <mxCell id="SCjaSDXvU5PeOb5kUxLL-6" style="shape=tableRow;horizontal=0;startSize=0;swimlaneHead=0;swimlaneBody=0;fillColor=none;collapsible=0;dropTarget=0;points=[[0,0.5],[1,0.5]];portConstraint=eastwest;top=0;left=0;right=0;bottom=0;" vertex="1" parent="SCjaSDXvU5PeOb5kUxLL-2">
          <mxGeometry y="47" width="288" height="22" as="geometry" />
        </mxCell>
        <mxCell id="SCjaSDXvU5PeOb5kUxLL-7" value="Name" style="shape=partialRectangle;connectable=0;fillColor=none;top=0;left=0;bottom=0;right=0;align=left;spacingLeft=2;overflow=hidden;fontSize=11;" vertex="1" parent="SCjaSDXvU5PeOb5kUxLL-6">
          <mxGeometry width="108" height="22" as="geometry">
            <mxRectangle width="108" height="22" as="alternateBounds" />
          </mxGeometry>
        </mxCell>
        <mxCell id="SCjaSDXvU5PeOb5kUxLL-8" value="string" style="shape=partialRectangle;connectable=0;fillColor=none;top=0;left=0;bottom=0;right=0;align=left;spacingLeft=2;overflow=hidden;fontSize=11;" vertex="1" parent="SCjaSDXvU5PeOb5kUxLL-6">
          <mxGeometry x="108" width="180" height="22" as="geometry">
            <mxRectangle width="180" height="22" as="alternateBounds" />
          </mxGeometry>
        </mxCell>
        <mxCell id="SCjaSDXvU5PeOb5kUxLL-9" style="shape=tableRow;horizontal=0;startSize=0;swimlaneHead=0;swimlaneBody=0;fillColor=none;collapsible=0;dropTarget=0;points=[[0,0.5],[1,0.5]];portConstraint=eastwest;top=0;left=0;right=0;bottom=0;" vertex="1" parent="SCjaSDXvU5PeOb5kUxLL-2">
          <mxGeometry y="69" width="288" height="22" as="geometry" />
        </mxCell>
        <mxCell id="SCjaSDXvU5PeOb5kUxLL-10" value="Description" style="shape=partialRectangle;connectable=0;fillColor=none;top=0;left=0;bottom=0;right=0;align=left;spacingLeft=2;overflow=hidden;fontSize=11;" vertex="1" parent="SCjaSDXvU5PeOb5kUxLL-9">
          <mxGeometry width="108" height="22" as="geometry">
            <mxRectangle width="108" height="22" as="alternateBounds" />
          </mxGeometry>
        </mxCell>
        <mxCell id="SCjaSDXvU5PeOb5kUxLL-11" value="string" style="shape=partialRectangle;connectable=0;fillColor=none;top=0;left=0;bottom=0;right=0;align=left;spacingLeft=2;overflow=hidden;fontSize=11;" vertex="1" parent="SCjaSDXvU5PeOb5kUxLL-9">
          <mxGeometry x="108" width="180" height="22" as="geometry">
            <mxRectangle width="180" height="22" as="alternateBounds" />
          </mxGeometry>
        </mxCell>
        <mxCell id="SCjaSDXvU5PeOb5kUxLL-12" style="shape=tableRow;horizontal=0;startSize=0;swimlaneHead=0;swimlaneBody=0;fillColor=none;collapsible=0;dropTarget=0;points=[[0,0.5],[1,0.5]];portConstraint=eastwest;top=0;left=0;right=0;bottom=0;" vertex="1" parent="SCjaSDXvU5PeOb5kUxLL-2">
          <mxGeometry y="91" width="288" height="22" as="geometry" />
        </mxCell>
        <mxCell id="SCjaSDXvU5PeOb5kUxLL-13" value="SearchWords" style="shape=partialRectangle;connectable=0;fillColor=none;top=0;left=0;bottom=0;right=0;align=left;spacingLeft=2;overflow=hidden;fontSize=11;" vertex="1" parent="SCjaSDXvU5PeOb5kUxLL-12">
          <mxGeometry width="108" height="22" as="geometry">
            <mxRectangle width="108" height="22" as="alternateBounds" />
          </mxGeometry>
        </mxCell>
        <mxCell id="SCjaSDXvU5PeOb5kUxLL-14" value="string" style="shape=partialRectangle;connectable=0;fillColor=none;top=0;left=0;bottom=0;right=0;align=left;spacingLeft=2;overflow=hidden;fontSize=11;" vertex="1" parent="SCjaSDXvU5PeOb5kUxLL-12">
          <mxGeometry x="108" width="180" height="22" as="geometry">
            <mxRectangle width="180" height="22" as="alternateBounds" />
          </mxGeometry>
        </mxCell>
        <mxCell id="SCjaSDXvU5PeOb5kUxLL-15" style="shape=tableRow;horizontal=0;startSize=0;swimlaneHead=0;swimlaneBody=0;fillColor=none;collapsible=0;dropTarget=0;points=[[0,0.5],[1,0.5]];portConstraint=eastwest;top=0;left=0;right=0;bottom=0;" vertex="1" parent="SCjaSDXvU5PeOb5kUxLL-2">
          <mxGeometry y="113" width="288" height="22" as="geometry" />
        </mxCell>
        <mxCell id="SCjaSDXvU5PeOb5kUxLL-16" value="SettingDefinitions" style="shape=partialRectangle;connectable=0;fillColor=none;top=0;left=0;bottom=0;right=0;align=left;spacingLeft=2;overflow=hidden;fontSize=11;" vertex="1" parent="SCjaSDXvU5PeOb5kUxLL-15">
          <mxGeometry width="108" height="22" as="geometry">
            <mxRectangle width="108" height="22" as="alternateBounds" />
          </mxGeometry>
        </mxCell>
        <mxCell id="SCjaSDXvU5PeOb5kUxLL-17" value="ICollection(SettingDefinition)" style="shape=partialRectangle;connectable=0;fillColor=none;top=0;left=0;bottom=0;right=0;align=left;spacingLeft=2;overflow=hidden;fontSize=11;" vertex="1" parent="SCjaSDXvU5PeOb5kUxLL-15">
          <mxGeometry x="108" width="180" height="22" as="geometry">
            <mxRectangle width="180" height="22" as="alternateBounds" />
          </mxGeometry>
        </mxCell>
        <mxCell id="SCjaSDXvU5PeOb5kUxLL-18" value="SettingDefinition" style="shape=table;startSize=25;container=1;collapsible=0;childLayout=tableLayout;fixedRows=1;rowLines=1;fontStyle=1;align=center;resizeLast=1;" vertex="1" parent="1">
          <mxGeometry x="362" y="554" width="144" height="201" as="geometry" />
        </mxCell>
        <mxCell id="SCjaSDXvU5PeOb5kUxLL-19" style="shape=tableRow;horizontal=0;startSize=0;swimlaneHead=0;swimlaneBody=0;fillColor=none;collapsible=0;dropTarget=0;points=[[0,0.5],[1,0.5]];portConstraint=eastwest;top=0;left=0;right=0;bottom=0;" vertex="1" parent="SCjaSDXvU5PeOb5kUxLL-18">
          <mxGeometry y="25" width="144" height="22" as="geometry" />
        </mxCell>
        <mxCell id="SCjaSDXvU5PeOb5kUxLL-20" value="Id" style="shape=partialRectangle;connectable=0;fillColor=none;top=0;left=0;bottom=0;right=0;align=left;spacingLeft=2;overflow=hidden;fontSize=11;" vertex="1" parent="SCjaSDXvU5PeOb5kUxLL-19">
          <mxGeometry width="102" height="22" as="geometry">
            <mxRectangle width="102" height="22" as="alternateBounds" />
          </mxGeometry>
        </mxCell>
        <mxCell id="SCjaSDXvU5PeOb5kUxLL-21" value="Guid" style="shape=partialRectangle;connectable=0;fillColor=none;top=0;left=0;bottom=0;right=0;align=left;spacingLeft=2;overflow=hidden;fontSize=11;" vertex="1" parent="SCjaSDXvU5PeOb5kUxLL-19">
          <mxGeometry x="102" width="42" height="22" as="geometry">
            <mxRectangle width="42" height="22" as="alternateBounds" />
          </mxGeometry>
        </mxCell>
        <mxCell id="SCjaSDXvU5PeOb5kUxLL-22" style="shape=tableRow;horizontal=0;startSize=0;swimlaneHead=0;swimlaneBody=0;fillColor=none;collapsible=0;dropTarget=0;points=[[0,0.5],[1,0.5]];portConstraint=eastwest;top=0;left=0;right=0;bottom=0;" vertex="1" parent="SCjaSDXvU5PeOb5kUxLL-18">
          <mxGeometry y="47" width="144" height="22" as="geometry" />
        </mxCell>
        <mxCell id="SCjaSDXvU5PeOb5kUxLL-23" value="Name" style="shape=partialRectangle;connectable=0;fillColor=none;top=0;left=0;bottom=0;right=0;align=left;spacingLeft=2;overflow=hidden;fontSize=11;" vertex="1" parent="SCjaSDXvU5PeOb5kUxLL-22">
          <mxGeometry width="102" height="22" as="geometry">
            <mxRectangle width="102" height="22" as="alternateBounds" />
          </mxGeometry>
        </mxCell>
        <mxCell id="SCjaSDXvU5PeOb5kUxLL-24" value="string" style="shape=partialRectangle;connectable=0;fillColor=none;top=0;left=0;bottom=0;right=0;align=left;spacingLeft=2;overflow=hidden;fontSize=11;" vertex="1" parent="SCjaSDXvU5PeOb5kUxLL-22">
          <mxGeometry x="102" width="42" height="22" as="geometry">
            <mxRectangle width="42" height="22" as="alternateBounds" />
          </mxGeometry>
        </mxCell>
        <mxCell id="SCjaSDXvU5PeOb5kUxLL-25" style="shape=tableRow;horizontal=0;startSize=0;swimlaneHead=0;swimlaneBody=0;fillColor=none;collapsible=0;dropTarget=0;points=[[0,0.5],[1,0.5]];portConstraint=eastwest;top=0;left=0;right=0;bottom=0;" vertex="1" parent="SCjaSDXvU5PeOb5kUxLL-18">
          <mxGeometry y="69" width="144" height="22" as="geometry" />
        </mxCell>
        <mxCell id="SCjaSDXvU5PeOb5kUxLL-26" value="Description" style="shape=partialRectangle;connectable=0;fillColor=none;top=0;left=0;bottom=0;right=0;align=left;spacingLeft=2;overflow=hidden;fontSize=11;" vertex="1" parent="SCjaSDXvU5PeOb5kUxLL-25">
          <mxGeometry width="102" height="22" as="geometry">
            <mxRectangle width="102" height="22" as="alternateBounds" />
          </mxGeometry>
        </mxCell>
        <mxCell id="SCjaSDXvU5PeOb5kUxLL-27" value="string" style="shape=partialRectangle;connectable=0;fillColor=none;top=0;left=0;bottom=0;right=0;align=left;spacingLeft=2;overflow=hidden;fontSize=11;" vertex="1" parent="SCjaSDXvU5PeOb5kUxLL-25">
          <mxGeometry x="102" width="42" height="22" as="geometry">
            <mxRectangle width="42" height="22" as="alternateBounds" />
          </mxGeometry>
        </mxCell>
        <mxCell id="SCjaSDXvU5PeOb5kUxLL-28" style="shape=tableRow;horizontal=0;startSize=0;swimlaneHead=0;swimlaneBody=0;fillColor=none;collapsible=0;dropTarget=0;points=[[0,0.5],[1,0.5]];portConstraint=eastwest;top=0;left=0;right=0;bottom=0;" vertex="1" parent="SCjaSDXvU5PeOb5kUxLL-18">
          <mxGeometry y="91" width="144" height="22" as="geometry" />
        </mxCell>
        <mxCell id="SCjaSDXvU5PeOb5kUxLL-29" value="SearchWords" style="shape=partialRectangle;connectable=0;fillColor=none;top=0;left=0;bottom=0;right=0;align=left;spacingLeft=2;overflow=hidden;fontSize=11;" vertex="1" parent="SCjaSDXvU5PeOb5kUxLL-28">
          <mxGeometry width="102" height="22" as="geometry">
            <mxRectangle width="102" height="22" as="alternateBounds" />
          </mxGeometry>
        </mxCell>
        <mxCell id="SCjaSDXvU5PeOb5kUxLL-30" value="string" style="shape=partialRectangle;connectable=0;fillColor=none;top=0;left=0;bottom=0;right=0;align=left;spacingLeft=2;overflow=hidden;fontSize=11;" vertex="1" parent="SCjaSDXvU5PeOb5kUxLL-28">
          <mxGeometry x="102" width="42" height="22" as="geometry">
            <mxRectangle width="42" height="22" as="alternateBounds" />
          </mxGeometry>
        </mxCell>
        <mxCell id="SCjaSDXvU5PeOb5kUxLL-31" style="shape=tableRow;horizontal=0;startSize=0;swimlaneHead=0;swimlaneBody=0;fillColor=none;collapsible=0;dropTarget=0;points=[[0,0.5],[1,0.5]];portConstraint=eastwest;top=0;left=0;right=0;bottom=0;" vertex="1" parent="SCjaSDXvU5PeOb5kUxLL-18">
          <mxGeometry y="113" width="144" height="22" as="geometry" />
        </mxCell>
        <mxCell id="SCjaSDXvU5PeOb5kUxLL-32" value="HelpText" style="shape=partialRectangle;connectable=0;fillColor=none;top=0;left=0;bottom=0;right=0;align=left;spacingLeft=2;overflow=hidden;fontSize=11;" vertex="1" parent="SCjaSDXvU5PeOb5kUxLL-31">
          <mxGeometry width="102" height="22" as="geometry">
            <mxRectangle width="102" height="22" as="alternateBounds" />
          </mxGeometry>
        </mxCell>
        <mxCell id="SCjaSDXvU5PeOb5kUxLL-33" value="string" style="shape=partialRectangle;connectable=0;fillColor=none;top=0;left=0;bottom=0;right=0;align=left;spacingLeft=2;overflow=hidden;fontSize=11;" vertex="1" parent="SCjaSDXvU5PeOb5kUxLL-31">
          <mxGeometry x="102" width="42" height="22" as="geometry">
            <mxRectangle width="42" height="22" as="alternateBounds" />
          </mxGeometry>
        </mxCell>
        <mxCell id="SCjaSDXvU5PeOb5kUxLL-34" style="shape=tableRow;horizontal=0;startSize=0;swimlaneHead=0;swimlaneBody=0;fillColor=none;collapsible=0;dropTarget=0;points=[[0,0.5],[1,0.5]];portConstraint=eastwest;top=0;left=0;right=0;bottom=0;" vertex="1" parent="SCjaSDXvU5PeOb5kUxLL-18">
          <mxGeometry y="135" width="144" height="22" as="geometry" />
        </mxCell>
        <mxCell id="SCjaSDXvU5PeOb5kUxLL-35" value="SettingCategoryId" style="shape=partialRectangle;connectable=0;fillColor=none;top=0;left=0;bottom=0;right=0;align=left;spacingLeft=2;overflow=hidden;fontSize=11;" vertex="1" parent="SCjaSDXvU5PeOb5kUxLL-34">
          <mxGeometry width="102" height="22" as="geometry">
            <mxRectangle width="102" height="22" as="alternateBounds" />
          </mxGeometry>
        </mxCell>
        <mxCell id="SCjaSDXvU5PeOb5kUxLL-36" value="string" style="shape=partialRectangle;connectable=0;fillColor=none;top=0;left=0;bottom=0;right=0;align=left;spacingLeft=2;overflow=hidden;fontSize=11;" vertex="1" parent="SCjaSDXvU5PeOb5kUxLL-34">
          <mxGeometry x="102" width="42" height="22" as="geometry">
            <mxRectangle width="42" height="22" as="alternateBounds" />
          </mxGeometry>
        </mxCell>
        <mxCell id="SCjaSDXvU5PeOb5kUxLL-37" style="shape=tableRow;horizontal=0;startSize=0;swimlaneHead=0;swimlaneBody=0;fillColor=none;collapsible=0;dropTarget=0;points=[[0,0.5],[1,0.5]];portConstraint=eastwest;top=0;left=0;right=0;bottom=0;" vertex="1" parent="SCjaSDXvU5PeOb5kUxLL-18">
          <mxGeometry y="157" width="144" height="22" as="geometry" />
        </mxCell>
        <mxCell id="SCjaSDXvU5PeOb5kUxLL-38" value="TargetLevel" style="shape=partialRectangle;connectable=0;fillColor=none;top=0;left=0;bottom=0;right=0;align=left;spacingLeft=2;overflow=hidden;fontSize=11;" vertex="1" parent="SCjaSDXvU5PeOb5kUxLL-37">
          <mxGeometry width="102" height="22" as="geometry">
            <mxRectangle width="102" height="22" as="alternateBounds" />
          </mxGeometry>
        </mxCell>
        <mxCell id="SCjaSDXvU5PeOb5kUxLL-39" value="string" style="shape=partialRectangle;connectable=0;fillColor=none;top=0;left=0;bottom=0;right=0;align=left;spacingLeft=2;overflow=hidden;fontSize=11;" vertex="1" parent="SCjaSDXvU5PeOb5kUxLL-37">
          <mxGeometry x="102" width="42" height="22" as="geometry">
            <mxRectangle width="42" height="22" as="alternateBounds" />
          </mxGeometry>
        </mxCell>
        <mxCell id="SCjaSDXvU5PeOb5kUxLL-40" style="shape=tableRow;horizontal=0;startSize=0;swimlaneHead=0;swimlaneBody=0;fillColor=none;collapsible=0;dropTarget=0;points=[[0,0.5],[1,0.5]];portConstraint=eastwest;top=0;left=0;right=0;bottom=0;" vertex="1" parent="SCjaSDXvU5PeOb5kUxLL-18">
          <mxGeometry y="179" width="144" height="22" as="geometry" />
        </mxCell>
        <mxCell id="SCjaSDXvU5PeOb5kUxLL-41" value="isNullable" style="shape=partialRectangle;connectable=0;fillColor=none;top=0;left=0;bottom=0;right=0;align=left;spacingLeft=2;overflow=hidden;fontSize=11;" vertex="1" parent="SCjaSDXvU5PeOb5kUxLL-40">
          <mxGeometry width="102" height="22" as="geometry">
            <mxRectangle width="102" height="22" as="alternateBounds" />
          </mxGeometry>
        </mxCell>
        <mxCell id="SCjaSDXvU5PeOb5kUxLL-42" value="boolean" style="shape=partialRectangle;connectable=0;fillColor=none;top=0;left=0;bottom=0;right=0;align=left;spacingLeft=2;overflow=hidden;fontSize=11;" vertex="1" parent="SCjaSDXvU5PeOb5kUxLL-40">
          <mxGeometry x="102" width="42" height="22" as="geometry">
            <mxRectangle width="42" height="22" as="alternateBounds" />
          </mxGeometry>
        </mxCell>
        <mxCell id="SCjaSDXvU5PeOb5kUxLL-43" value="SettingCategory" style="shape=table;startSize=25;container=1;collapsible=0;childLayout=tableLayout;fixedRows=1;rowLines=1;fontStyle=1;align=center;resizeLast=1;" vertex="1" parent="1">
          <mxGeometry x="963" y="854" width="174" height="157" as="geometry" />
        </mxCell>
        <mxCell id="SCjaSDXvU5PeOb5kUxLL-44" style="shape=tableRow;horizontal=0;startSize=0;swimlaneHead=0;swimlaneBody=0;fillColor=none;collapsible=0;dropTarget=0;points=[[0,0.5],[1,0.5]];portConstraint=eastwest;top=0;left=0;right=0;bottom=0;" vertex="1" parent="SCjaSDXvU5PeOb5kUxLL-43">
          <mxGeometry y="25" width="174" height="22" as="geometry" />
        </mxCell>
        <mxCell id="SCjaSDXvU5PeOb5kUxLL-45" value="Id" style="shape=partialRectangle;connectable=0;fillColor=none;top=0;left=0;bottom=0;right=0;align=left;spacingLeft=2;overflow=hidden;fontSize=11;" vertex="1" parent="SCjaSDXvU5PeOb5kUxLL-44">
          <mxGeometry width="138" height="22" as="geometry">
            <mxRectangle width="138" height="22" as="alternateBounds" />
          </mxGeometry>
        </mxCell>
        <mxCell id="SCjaSDXvU5PeOb5kUxLL-46" value="Guid" style="shape=partialRectangle;connectable=0;fillColor=none;top=0;left=0;bottom=0;right=0;align=left;spacingLeft=2;overflow=hidden;fontSize=11;" vertex="1" parent="SCjaSDXvU5PeOb5kUxLL-44">
          <mxGeometry x="138" width="36" height="22" as="geometry">
            <mxRectangle width="36" height="22" as="alternateBounds" />
          </mxGeometry>
        </mxCell>
        <mxCell id="SCjaSDXvU5PeOb5kUxLL-47" style="shape=tableRow;horizontal=0;startSize=0;swimlaneHead=0;swimlaneBody=0;fillColor=none;collapsible=0;dropTarget=0;points=[[0,0.5],[1,0.5]];portConstraint=eastwest;top=0;left=0;right=0;bottom=0;" vertex="1" parent="SCjaSDXvU5PeOb5kUxLL-43">
          <mxGeometry y="47" width="174" height="22" as="geometry" />
        </mxCell>
        <mxCell id="SCjaSDXvU5PeOb5kUxLL-48" value="Key" style="shape=partialRectangle;connectable=0;fillColor=none;top=0;left=0;bottom=0;right=0;align=left;spacingLeft=2;overflow=hidden;fontSize=11;" vertex="1" parent="SCjaSDXvU5PeOb5kUxLL-47">
          <mxGeometry width="138" height="22" as="geometry">
            <mxRectangle width="138" height="22" as="alternateBounds" />
          </mxGeometry>
        </mxCell>
        <mxCell id="SCjaSDXvU5PeOb5kUxLL-49" value="string" style="shape=partialRectangle;connectable=0;fillColor=none;top=0;left=0;bottom=0;right=0;align=left;spacingLeft=2;overflow=hidden;fontSize=11;" vertex="1" parent="SCjaSDXvU5PeOb5kUxLL-47">
          <mxGeometry x="138" width="36" height="22" as="geometry">
            <mxRectangle width="36" height="22" as="alternateBounds" />
          </mxGeometry>
        </mxCell>
        <mxCell id="SCjaSDXvU5PeOb5kUxLL-50" style="shape=tableRow;horizontal=0;startSize=0;swimlaneHead=0;swimlaneBody=0;fillColor=none;collapsible=0;dropTarget=0;points=[[0,0.5],[1,0.5]];portConstraint=eastwest;top=0;left=0;right=0;bottom=0;" vertex="1" parent="SCjaSDXvU5PeOb5kUxLL-43">
          <mxGeometry y="69" width="174" height="22" as="geometry" />
        </mxCell>
        <mxCell id="SCjaSDXvU5PeOb5kUxLL-51" value="Name" style="shape=partialRectangle;connectable=0;fillColor=none;top=0;left=0;bottom=0;right=0;align=left;spacingLeft=2;overflow=hidden;fontSize=11;" vertex="1" parent="SCjaSDXvU5PeOb5kUxLL-50">
          <mxGeometry width="138" height="22" as="geometry">
            <mxRectangle width="138" height="22" as="alternateBounds" />
          </mxGeometry>
        </mxCell>
        <mxCell id="SCjaSDXvU5PeOb5kUxLL-52" value="string" style="shape=partialRectangle;connectable=0;fillColor=none;top=0;left=0;bottom=0;right=0;align=left;spacingLeft=2;overflow=hidden;fontSize=11;" vertex="1" parent="SCjaSDXvU5PeOb5kUxLL-50">
          <mxGeometry x="138" width="36" height="22" as="geometry">
            <mxRectangle width="36" height="22" as="alternateBounds" />
          </mxGeometry>
        </mxCell>
        <mxCell id="SCjaSDXvU5PeOb5kUxLL-53" style="shape=tableRow;horizontal=0;startSize=0;swimlaneHead=0;swimlaneBody=0;fillColor=none;collapsible=0;dropTarget=0;points=[[0,0.5],[1,0.5]];portConstraint=eastwest;top=0;left=0;right=0;bottom=0;" vertex="1" parent="SCjaSDXvU5PeOb5kUxLL-43">
          <mxGeometry y="91" width="174" height="22" as="geometry" />
        </mxCell>
        <mxCell id="SCjaSDXvU5PeOb5kUxLL-54" value="Description" style="shape=partialRectangle;connectable=0;fillColor=none;top=0;left=0;bottom=0;right=0;align=left;spacingLeft=2;overflow=hidden;fontSize=11;" vertex="1" parent="SCjaSDXvU5PeOb5kUxLL-53">
          <mxGeometry width="138" height="22" as="geometry">
            <mxRectangle width="138" height="22" as="alternateBounds" />
          </mxGeometry>
        </mxCell>
        <mxCell id="SCjaSDXvU5PeOb5kUxLL-55" value="string" style="shape=partialRectangle;connectable=0;fillColor=none;top=0;left=0;bottom=0;right=0;align=left;spacingLeft=2;overflow=hidden;fontSize=11;" vertex="1" parent="SCjaSDXvU5PeOb5kUxLL-53">
          <mxGeometry x="138" width="36" height="22" as="geometry">
            <mxRectangle width="36" height="22" as="alternateBounds" />
          </mxGeometry>
        </mxCell>
        <mxCell id="SCjaSDXvU5PeOb5kUxLL-56" style="shape=tableRow;horizontal=0;startSize=0;swimlaneHead=0;swimlaneBody=0;fillColor=none;collapsible=0;dropTarget=0;points=[[0,0.5],[1,0.5]];portConstraint=eastwest;top=0;left=0;right=0;bottom=0;" vertex="1" parent="SCjaSDXvU5PeOb5kUxLL-43">
          <mxGeometry y="113" width="174" height="22" as="geometry" />
        </mxCell>
        <mxCell id="SCjaSDXvU5PeOb5kUxLL-57" value="ParentSettingCategoryId" style="shape=partialRectangle;connectable=0;fillColor=none;top=0;left=0;bottom=0;right=0;align=left;spacingLeft=2;overflow=hidden;fontSize=11;" vertex="1" parent="SCjaSDXvU5PeOb5kUxLL-56">
          <mxGeometry width="138" height="22" as="geometry">
            <mxRectangle width="138" height="22" as="alternateBounds" />
          </mxGeometry>
        </mxCell>
        <mxCell id="SCjaSDXvU5PeOb5kUxLL-58" value="Guid" style="shape=partialRectangle;connectable=0;fillColor=none;top=0;left=0;bottom=0;right=0;align=left;spacingLeft=2;overflow=hidden;fontSize=11;" vertex="1" parent="SCjaSDXvU5PeOb5kUxLL-56">
          <mxGeometry x="138" width="36" height="22" as="geometry">
            <mxRectangle width="36" height="22" as="alternateBounds" />
          </mxGeometry>
        </mxCell>
        <mxCell id="SCjaSDXvU5PeOb5kUxLL-59" style="shape=tableRow;horizontal=0;startSize=0;swimlaneHead=0;swimlaneBody=0;fillColor=none;collapsible=0;dropTarget=0;points=[[0,0.5],[1,0.5]];portConstraint=eastwest;top=0;left=0;right=0;bottom=0;" vertex="1" parent="SCjaSDXvU5PeOb5kUxLL-43">
          <mxGeometry y="135" width="174" height="22" as="geometry" />
        </mxCell>
        <mxCell id="SCjaSDXvU5PeOb5kUxLL-60" value="Version" style="shape=partialRectangle;connectable=0;fillColor=none;top=0;left=0;bottom=0;right=0;align=left;spacingLeft=2;overflow=hidden;fontSize=11;" vertex="1" parent="SCjaSDXvU5PeOb5kUxLL-59">
          <mxGeometry width="138" height="22" as="geometry">
            <mxRectangle width="138" height="22" as="alternateBounds" />
          </mxGeometry>
        </mxCell>
        <mxCell id="SCjaSDXvU5PeOb5kUxLL-61" value="int" style="shape=partialRectangle;connectable=0;fillColor=none;top=0;left=0;bottom=0;right=0;align=left;spacingLeft=2;overflow=hidden;fontSize=11;" vertex="1" parent="SCjaSDXvU5PeOb5kUxLL-59">
          <mxGeometry x="138" width="36" height="22" as="geometry">
            <mxRectangle width="36" height="22" as="alternateBounds" />
          </mxGeometry>
        </mxCell>
        <mxCell id="SCjaSDXvU5PeOb5kUxLL-62" value="Setting" style="shape=table;startSize=25;container=1;collapsible=0;childLayout=tableLayout;fixedRows=1;rowLines=1;fontStyle=1;align=center;resizeLast=1;" vertex="1" parent="1">
          <mxGeometry x="585" y="876" width="150" height="113" as="geometry" />
        </mxCell>
        <mxCell id="SCjaSDXvU5PeOb5kUxLL-63" style="shape=tableRow;horizontal=0;startSize=0;swimlaneHead=0;swimlaneBody=0;fillColor=none;collapsible=0;dropTarget=0;points=[[0,0.5],[1,0.5]];portConstraint=eastwest;top=0;left=0;right=0;bottom=0;" vertex="1" parent="SCjaSDXvU5PeOb5kUxLL-62">
          <mxGeometry y="25" width="150" height="22" as="geometry" />
        </mxCell>
        <mxCell id="SCjaSDXvU5PeOb5kUxLL-64" value="Id" style="shape=partialRectangle;connectable=0;fillColor=none;top=0;left=0;bottom=0;right=0;align=left;spacingLeft=2;overflow=hidden;fontSize=11;" vertex="1" parent="SCjaSDXvU5PeOb5kUxLL-63">
          <mxGeometry width="114" height="22" as="geometry">
            <mxRectangle width="114" height="22" as="alternateBounds" />
          </mxGeometry>
        </mxCell>
        <mxCell id="SCjaSDXvU5PeOb5kUxLL-65" value="Guid" style="shape=partialRectangle;connectable=0;fillColor=none;top=0;left=0;bottom=0;right=0;align=left;spacingLeft=2;overflow=hidden;fontSize=11;" vertex="1" parent="SCjaSDXvU5PeOb5kUxLL-63">
          <mxGeometry x="114" width="36" height="22" as="geometry">
            <mxRectangle width="36" height="22" as="alternateBounds" />
          </mxGeometry>
        </mxCell>
        <mxCell id="SCjaSDXvU5PeOb5kUxLL-66" style="shape=tableRow;horizontal=0;startSize=0;swimlaneHead=0;swimlaneBody=0;fillColor=none;collapsible=0;dropTarget=0;points=[[0,0.5],[1,0.5]];portConstraint=eastwest;top=0;left=0;right=0;bottom=0;" vertex="1" parent="SCjaSDXvU5PeOb5kUxLL-62">
          <mxGeometry y="47" width="150" height="22" as="geometry" />
        </mxCell>
        <mxCell id="SCjaSDXvU5PeOb5kUxLL-67" value="SettingDefinitionId" style="shape=partialRectangle;connectable=0;fillColor=none;top=0;left=0;bottom=0;right=0;align=left;spacingLeft=2;overflow=hidden;fontSize=11;" vertex="1" parent="SCjaSDXvU5PeOb5kUxLL-66">
          <mxGeometry width="114" height="22" as="geometry">
            <mxRectangle width="114" height="22" as="alternateBounds" />
          </mxGeometry>
        </mxCell>
        <mxCell id="SCjaSDXvU5PeOb5kUxLL-68" value="Guid" style="shape=partialRectangle;connectable=0;fillColor=none;top=0;left=0;bottom=0;right=0;align=left;spacingLeft=2;overflow=hidden;fontSize=11;" vertex="1" parent="SCjaSDXvU5PeOb5kUxLL-66">
          <mxGeometry x="114" width="36" height="22" as="geometry">
            <mxRectangle width="36" height="22" as="alternateBounds" />
          </mxGeometry>
        </mxCell>
        <mxCell id="SCjaSDXvU5PeOb5kUxLL-69" style="shape=tableRow;horizontal=0;startSize=0;swimlaneHead=0;swimlaneBody=0;fillColor=none;collapsible=0;dropTarget=0;points=[[0,0.5],[1,0.5]];portConstraint=eastwest;top=0;left=0;right=0;bottom=0;" vertex="1" parent="SCjaSDXvU5PeOb5kUxLL-62">
          <mxGeometry y="69" width="150" height="22" as="geometry" />
        </mxCell>
        <mxCell id="SCjaSDXvU5PeOb5kUxLL-70" value="Value" style="shape=partialRectangle;connectable=0;fillColor=none;top=0;left=0;bottom=0;right=0;align=left;spacingLeft=2;overflow=hidden;fontSize=11;" vertex="1" parent="SCjaSDXvU5PeOb5kUxLL-69">
          <mxGeometry width="114" height="22" as="geometry">
            <mxRectangle width="114" height="22" as="alternateBounds" />
          </mxGeometry>
        </mxCell>
        <mxCell id="SCjaSDXvU5PeOb5kUxLL-71" value="string" style="shape=partialRectangle;connectable=0;fillColor=none;top=0;left=0;bottom=0;right=0;align=left;spacingLeft=2;overflow=hidden;fontSize=11;" vertex="1" parent="SCjaSDXvU5PeOb5kUxLL-69">
          <mxGeometry x="114" width="36" height="22" as="geometry">
            <mxRectangle width="36" height="22" as="alternateBounds" />
          </mxGeometry>
        </mxCell>
        <mxCell id="SCjaSDXvU5PeOb5kUxLL-72" style="shape=tableRow;horizontal=0;startSize=0;swimlaneHead=0;swimlaneBody=0;fillColor=none;collapsible=0;dropTarget=0;points=[[0,0.5],[1,0.5]];portConstraint=eastwest;top=0;left=0;right=0;bottom=0;" vertex="1" parent="SCjaSDXvU5PeOb5kUxLL-62">
          <mxGeometry y="91" width="150" height="22" as="geometry" />
        </mxCell>
        <mxCell id="SCjaSDXvU5PeOb5kUxLL-73" value="Version" style="shape=partialRectangle;connectable=0;fillColor=none;top=0;left=0;bottom=0;right=0;align=left;spacingLeft=2;overflow=hidden;fontSize=11;" vertex="1" parent="SCjaSDXvU5PeOb5kUxLL-72">
          <mxGeometry width="114" height="22" as="geometry">
            <mxRectangle width="114" height="22" as="alternateBounds" />
          </mxGeometry>
        </mxCell>
        <mxCell id="SCjaSDXvU5PeOb5kUxLL-74" value="int" style="shape=partialRectangle;connectable=0;fillColor=none;top=0;left=0;bottom=0;right=0;align=left;spacingLeft=2;overflow=hidden;fontSize=11;" vertex="1" parent="SCjaSDXvU5PeOb5kUxLL-72">
          <mxGeometry x="114" width="36" height="22" as="geometry">
            <mxRectangle width="36" height="22" as="alternateBounds" />
          </mxGeometry>
        </mxCell>
        <mxCell id="SCjaSDXvU5PeOb5kUxLL-75" value="Policy" style="shape=table;startSize=25;container=1;collapsible=0;childLayout=tableLayout;fixedRows=1;rowLines=1;fontStyle=1;align=center;resizeLast=1;" vertex="1" parent="1">
          <mxGeometry x="442" y="20" width="132" height="201" as="geometry" />
        </mxCell>
        <mxCell id="SCjaSDXvU5PeOb5kUxLL-76" style="shape=tableRow;horizontal=0;startSize=0;swimlaneHead=0;swimlaneBody=0;fillColor=none;collapsible=0;dropTarget=0;points=[[0,0.5],[1,0.5]];portConstraint=eastwest;top=0;left=0;right=0;bottom=0;" vertex="1" parent="SCjaSDXvU5PeOb5kUxLL-75">
          <mxGeometry y="25" width="132" height="22" as="geometry" />
        </mxCell>
        <mxCell id="SCjaSDXvU5PeOb5kUxLL-77" value="Id" style="shape=partialRectangle;connectable=0;fillColor=none;top=0;left=0;bottom=0;right=0;align=left;spacingLeft=2;overflow=hidden;fontSize=11;" vertex="1" parent="SCjaSDXvU5PeOb5kUxLL-76">
          <mxGeometry width="96" height="22" as="geometry">
            <mxRectangle width="96" height="22" as="alternateBounds" />
          </mxGeometry>
        </mxCell>
        <mxCell id="SCjaSDXvU5PeOb5kUxLL-78" value="Guid" style="shape=partialRectangle;connectable=0;fillColor=none;top=0;left=0;bottom=0;right=0;align=left;spacingLeft=2;overflow=hidden;fontSize=11;" vertex="1" parent="SCjaSDXvU5PeOb5kUxLL-76">
          <mxGeometry x="96" width="36" height="22" as="geometry">
            <mxRectangle width="36" height="22" as="alternateBounds" />
          </mxGeometry>
        </mxCell>
        <mxCell id="SCjaSDXvU5PeOb5kUxLL-79" style="shape=tableRow;horizontal=0;startSize=0;swimlaneHead=0;swimlaneBody=0;fillColor=none;collapsible=0;dropTarget=0;points=[[0,0.5],[1,0.5]];portConstraint=eastwest;top=0;left=0;right=0;bottom=0;" vertex="1" parent="SCjaSDXvU5PeOb5kUxLL-75">
          <mxGeometry y="47" width="132" height="22" as="geometry" />
        </mxCell>
        <mxCell id="SCjaSDXvU5PeOb5kUxLL-80" value="Name" style="shape=partialRectangle;connectable=0;fillColor=none;top=0;left=0;bottom=0;right=0;align=left;spacingLeft=2;overflow=hidden;fontSize=11;" vertex="1" parent="SCjaSDXvU5PeOb5kUxLL-79">
          <mxGeometry width="96" height="22" as="geometry">
            <mxRectangle width="96" height="22" as="alternateBounds" />
          </mxGeometry>
        </mxCell>
        <mxCell id="SCjaSDXvU5PeOb5kUxLL-81" value="string" style="shape=partialRectangle;connectable=0;fillColor=none;top=0;left=0;bottom=0;right=0;align=left;spacingLeft=2;overflow=hidden;fontSize=11;" vertex="1" parent="SCjaSDXvU5PeOb5kUxLL-79">
          <mxGeometry x="96" width="36" height="22" as="geometry">
            <mxRectangle width="36" height="22" as="alternateBounds" />
          </mxGeometry>
        </mxCell>
        <mxCell id="SCjaSDXvU5PeOb5kUxLL-82" style="shape=tableRow;horizontal=0;startSize=0;swimlaneHead=0;swimlaneBody=0;fillColor=none;collapsible=0;dropTarget=0;points=[[0,0.5],[1,0.5]];portConstraint=eastwest;top=0;left=0;right=0;bottom=0;" vertex="1" parent="SCjaSDXvU5PeOb5kUxLL-75">
          <mxGeometry y="69" width="132" height="22" as="geometry" />
        </mxCell>
        <mxCell id="SCjaSDXvU5PeOb5kUxLL-83" value="Description" style="shape=partialRectangle;connectable=0;fillColor=none;top=0;left=0;bottom=0;right=0;align=left;spacingLeft=2;overflow=hidden;fontSize=11;" vertex="1" parent="SCjaSDXvU5PeOb5kUxLL-82">
          <mxGeometry width="96" height="22" as="geometry">
            <mxRectangle width="96" height="22" as="alternateBounds" />
          </mxGeometry>
        </mxCell>
        <mxCell id="SCjaSDXvU5PeOb5kUxLL-84" value="string" style="shape=partialRectangle;connectable=0;fillColor=none;top=0;left=0;bottom=0;right=0;align=left;spacingLeft=2;overflow=hidden;fontSize=11;" vertex="1" parent="SCjaSDXvU5PeOb5kUxLL-82">
          <mxGeometry x="96" width="36" height="22" as="geometry">
            <mxRectangle width="36" height="22" as="alternateBounds" />
          </mxGeometry>
        </mxCell>
        <mxCell id="SCjaSDXvU5PeOb5kUxLL-85" style="shape=tableRow;horizontal=0;startSize=0;swimlaneHead=0;swimlaneBody=0;fillColor=none;collapsible=0;dropTarget=0;points=[[0,0.5],[1,0.5]];portConstraint=eastwest;top=0;left=0;right=0;bottom=0;" vertex="1" parent="SCjaSDXvU5PeOb5kUxLL-75">
          <mxGeometry y="91" width="132" height="22" as="geometry" />
        </mxCell>
        <mxCell id="SCjaSDXvU5PeOb5kUxLL-86" value="PolicyType" style="shape=partialRectangle;connectable=0;fillColor=none;top=0;left=0;bottom=0;right=0;align=left;spacingLeft=2;overflow=hidden;fontSize=11;" vertex="1" parent="SCjaSDXvU5PeOb5kUxLL-85">
          <mxGeometry width="96" height="22" as="geometry">
            <mxRectangle width="96" height="22" as="alternateBounds" />
          </mxGeometry>
        </mxCell>
        <mxCell id="SCjaSDXvU5PeOb5kUxLL-87" value="string" style="shape=partialRectangle;connectable=0;fillColor=none;top=0;left=0;bottom=0;right=0;align=left;spacingLeft=2;overflow=hidden;fontSize=11;" vertex="1" parent="SCjaSDXvU5PeOb5kUxLL-85">
          <mxGeometry x="96" width="36" height="22" as="geometry">
            <mxRectangle width="36" height="22" as="alternateBounds" />
          </mxGeometry>
        </mxCell>
        <mxCell id="SCjaSDXvU5PeOb5kUxLL-88" style="shape=tableRow;horizontal=0;startSize=0;swimlaneHead=0;swimlaneBody=0;fillColor=none;collapsible=0;dropTarget=0;points=[[0,0.5],[1,0.5]];portConstraint=eastwest;top=0;left=0;right=0;bottom=0;" vertex="1" parent="SCjaSDXvU5PeOb5kUxLL-75">
          <mxGeometry y="113" width="132" height="22" as="geometry" />
        </mxCell>
        <mxCell id="SCjaSDXvU5PeOb5kUxLL-89" value="PolicyTemplateId" style="shape=partialRectangle;connectable=0;fillColor=none;top=0;left=0;bottom=0;right=0;align=left;spacingLeft=2;overflow=hidden;fontSize=11;" vertex="1" parent="SCjaSDXvU5PeOb5kUxLL-88">
          <mxGeometry width="96" height="22" as="geometry">
            <mxRectangle width="96" height="22" as="alternateBounds" />
          </mxGeometry>
        </mxCell>
        <mxCell id="SCjaSDXvU5PeOb5kUxLL-90" value="Guid" style="shape=partialRectangle;connectable=0;fillColor=none;top=0;left=0;bottom=0;right=0;align=left;spacingLeft=2;overflow=hidden;fontSize=11;" vertex="1" parent="SCjaSDXvU5PeOb5kUxLL-88">
          <mxGeometry x="96" width="36" height="22" as="geometry">
            <mxRectangle width="36" height="22" as="alternateBounds" />
          </mxGeometry>
        </mxCell>
        <mxCell id="SCjaSDXvU5PeOb5kUxLL-91" style="shape=tableRow;horizontal=0;startSize=0;swimlaneHead=0;swimlaneBody=0;fillColor=none;collapsible=0;dropTarget=0;points=[[0,0.5],[1,0.5]];portConstraint=eastwest;top=0;left=0;right=0;bottom=0;" vertex="1" parent="SCjaSDXvU5PeOb5kUxLL-75">
          <mxGeometry y="135" width="132" height="22" as="geometry" />
        </mxCell>
        <mxCell id="SCjaSDXvU5PeOb5kUxLL-92" value="Settings" style="shape=partialRectangle;connectable=0;fillColor=none;top=0;left=0;bottom=0;right=0;align=left;spacingLeft=2;overflow=hidden;fontSize=11;" vertex="1" parent="SCjaSDXvU5PeOb5kUxLL-91">
          <mxGeometry width="96" height="22" as="geometry">
            <mxRectangle width="96" height="22" as="alternateBounds" />
          </mxGeometry>
        </mxCell>
        <mxCell id="SCjaSDXvU5PeOb5kUxLL-93" value="text" style="shape=partialRectangle;connectable=0;fillColor=none;top=0;left=0;bottom=0;right=0;align=left;spacingLeft=2;overflow=hidden;fontSize=11;" vertex="1" parent="SCjaSDXvU5PeOb5kUxLL-91">
          <mxGeometry x="96" width="36" height="22" as="geometry">
            <mxRectangle width="36" height="22" as="alternateBounds" />
          </mxGeometry>
        </mxCell>
        <mxCell id="SCjaSDXvU5PeOb5kUxLL-94" style="shape=tableRow;horizontal=0;startSize=0;swimlaneHead=0;swimlaneBody=0;fillColor=none;collapsible=0;dropTarget=0;points=[[0,0.5],[1,0.5]];portConstraint=eastwest;top=0;left=0;right=0;bottom=0;" vertex="1" parent="SCjaSDXvU5PeOb5kUxLL-75">
          <mxGeometry y="157" width="132" height="22" as="geometry" />
        </mxCell>
        <mxCell id="SCjaSDXvU5PeOb5kUxLL-95" value="ScopeIds" style="shape=partialRectangle;connectable=0;fillColor=none;top=0;left=0;bottom=0;right=0;align=left;spacingLeft=2;overflow=hidden;fontSize=11;" vertex="1" parent="SCjaSDXvU5PeOb5kUxLL-94">
          <mxGeometry width="96" height="22" as="geometry">
            <mxRectangle width="96" height="22" as="alternateBounds" />
          </mxGeometry>
        </mxCell>
        <mxCell id="SCjaSDXvU5PeOb5kUxLL-96" value="string" style="shape=partialRectangle;connectable=0;fillColor=none;top=0;left=0;bottom=0;right=0;align=left;spacingLeft=2;overflow=hidden;fontSize=11;" vertex="1" parent="SCjaSDXvU5PeOb5kUxLL-94">
          <mxGeometry x="96" width="36" height="22" as="geometry">
            <mxRectangle width="36" height="22" as="alternateBounds" />
          </mxGeometry>
        </mxCell>
        <mxCell id="SCjaSDXvU5PeOb5kUxLL-97" style="shape=tableRow;horizontal=0;startSize=0;swimlaneHead=0;swimlaneBody=0;fillColor=none;collapsible=0;dropTarget=0;points=[[0,0.5],[1,0.5]];portConstraint=eastwest;top=0;left=0;right=0;bottom=0;" vertex="1" parent="SCjaSDXvU5PeOb5kUxLL-75">
          <mxGeometry y="179" width="132" height="22" as="geometry" />
        </mxCell>
        <mxCell id="SCjaSDXvU5PeOb5kUxLL-98" value="Version" style="shape=partialRectangle;connectable=0;fillColor=none;top=0;left=0;bottom=0;right=0;align=left;spacingLeft=2;overflow=hidden;fontSize=11;" vertex="1" parent="SCjaSDXvU5PeOb5kUxLL-97">
          <mxGeometry width="96" height="22" as="geometry">
            <mxRectangle width="96" height="22" as="alternateBounds" />
          </mxGeometry>
        </mxCell>
        <mxCell id="SCjaSDXvU5PeOb5kUxLL-99" value="int" style="shape=partialRectangle;connectable=0;fillColor=none;top=0;left=0;bottom=0;right=0;align=left;spacingLeft=2;overflow=hidden;fontSize=11;" vertex="1" parent="SCjaSDXvU5PeOb5kUxLL-97">
          <mxGeometry x="96" width="36" height="22" as="geometry">
            <mxRectangle width="36" height="22" as="alternateBounds" />
          </mxGeometry>
        </mxCell>
        <mxCell id="SCjaSDXvU5PeOb5kUxLL-100" value="StringSettingDefinition" style="shape=table;startSize=25;container=1;collapsible=0;childLayout=tableLayout;fixedRows=1;rowLines=1;fontStyle=1;align=center;resizeLast=1;" vertex="1" parent="1">
          <mxGeometry x="355" y="342" width="152" height="91" as="geometry" />
        </mxCell>
        <mxCell id="SCjaSDXvU5PeOb5kUxLL-101" style="shape=tableRow;horizontal=0;startSize=0;swimlaneHead=0;swimlaneBody=0;fillColor=none;collapsible=0;dropTarget=0;points=[[0,0.5],[1,0.5]];portConstraint=eastwest;top=0;left=0;right=0;bottom=0;" vertex="1" parent="SCjaSDXvU5PeOb5kUxLL-100">
          <mxGeometry y="25" width="152" height="22" as="geometry" />
        </mxCell>
        <mxCell id="SCjaSDXvU5PeOb5kUxLL-102" value="mixLength" style="shape=partialRectangle;connectable=0;fillColor=none;top=0;left=0;bottom=0;right=0;align=left;spacingLeft=2;overflow=hidden;fontSize=11;" vertex="1" parent="SCjaSDXvU5PeOb5kUxLL-101">
          <mxGeometry width="114" height="22" as="geometry">
            <mxRectangle width="114" height="22" as="alternateBounds" />
          </mxGeometry>
        </mxCell>
        <mxCell id="SCjaSDXvU5PeOb5kUxLL-103" value="int" style="shape=partialRectangle;connectable=0;fillColor=none;top=0;left=0;bottom=0;right=0;align=left;spacingLeft=2;overflow=hidden;fontSize=11;" vertex="1" parent="SCjaSDXvU5PeOb5kUxLL-101">
          <mxGeometry x="114" width="38" height="22" as="geometry">
            <mxRectangle width="38" height="22" as="alternateBounds" />
          </mxGeometry>
        </mxCell>
        <mxCell id="SCjaSDXvU5PeOb5kUxLL-104" style="shape=tableRow;horizontal=0;startSize=0;swimlaneHead=0;swimlaneBody=0;fillColor=none;collapsible=0;dropTarget=0;points=[[0,0.5],[1,0.5]];portConstraint=eastwest;top=0;left=0;right=0;bottom=0;" vertex="1" parent="SCjaSDXvU5PeOb5kUxLL-100">
          <mxGeometry y="47" width="152" height="22" as="geometry" />
        </mxCell>
        <mxCell id="SCjaSDXvU5PeOb5kUxLL-105" value="maxLength" style="shape=partialRectangle;connectable=0;fillColor=none;top=0;left=0;bottom=0;right=0;align=left;spacingLeft=2;overflow=hidden;fontSize=11;" vertex="1" parent="SCjaSDXvU5PeOb5kUxLL-104">
          <mxGeometry width="114" height="22" as="geometry">
            <mxRectangle width="114" height="22" as="alternateBounds" />
          </mxGeometry>
        </mxCell>
        <mxCell id="SCjaSDXvU5PeOb5kUxLL-106" value="int" style="shape=partialRectangle;connectable=0;fillColor=none;top=0;left=0;bottom=0;right=0;align=left;spacingLeft=2;overflow=hidden;fontSize=11;" vertex="1" parent="SCjaSDXvU5PeOb5kUxLL-104">
          <mxGeometry x="114" width="38" height="22" as="geometry">
            <mxRectangle width="38" height="22" as="alternateBounds" />
          </mxGeometry>
        </mxCell>
        <mxCell id="SCjaSDXvU5PeOb5kUxLL-107" style="shape=tableRow;horizontal=0;startSize=0;swimlaneHead=0;swimlaneBody=0;fillColor=none;collapsible=0;dropTarget=0;points=[[0,0.5],[1,0.5]];portConstraint=eastwest;top=0;left=0;right=0;bottom=0;" vertex="1" parent="SCjaSDXvU5PeOb5kUxLL-100">
          <mxGeometry y="69" width="152" height="22" as="geometry" />
        </mxCell>
        <mxCell id="SCjaSDXvU5PeOb5kUxLL-108" value="notAllowedCharacter" style="shape=partialRectangle;connectable=0;fillColor=none;top=0;left=0;bottom=0;right=0;align=left;spacingLeft=2;overflow=hidden;fontSize=11;" vertex="1" parent="SCjaSDXvU5PeOb5kUxLL-107">
          <mxGeometry width="114" height="22" as="geometry">
            <mxRectangle width="114" height="22" as="alternateBounds" />
          </mxGeometry>
        </mxCell>
        <mxCell id="SCjaSDXvU5PeOb5kUxLL-109" value="string" style="shape=partialRectangle;connectable=0;fillColor=none;top=0;left=0;bottom=0;right=0;align=left;spacingLeft=2;overflow=hidden;fontSize=11;" vertex="1" parent="SCjaSDXvU5PeOb5kUxLL-107">
          <mxGeometry x="114" width="38" height="22" as="geometry">
            <mxRectangle width="38" height="22" as="alternateBounds" />
          </mxGeometry>
        </mxCell>
        <mxCell id="SCjaSDXvU5PeOb5kUxLL-110" value="EnumSettingDefinition" style="shape=table;startSize=25;container=1;collapsible=0;childLayout=tableLayout;fixedRows=1;rowLines=1;fontStyle=1;align=center;resizeLast=1;" vertex="1" parent="1">
          <mxGeometry x="607" y="364" width="186" height="46" as="geometry" />
        </mxCell>
        <mxCell id="SCjaSDXvU5PeOb5kUxLL-111" style="shape=tableRow;horizontal=0;startSize=0;swimlaneHead=0;swimlaneBody=0;fillColor=none;collapsible=0;dropTarget=0;points=[[0,0.5],[1,0.5]];portConstraint=eastwest;top=0;left=0;right=0;bottom=0;" vertex="1" parent="SCjaSDXvU5PeOb5kUxLL-110">
          <mxGeometry y="25" width="186" height="21" as="geometry" />
        </mxCell>
        <mxCell id="SCjaSDXvU5PeOb5kUxLL-112" value="allowedValue" style="shape=partialRectangle;connectable=0;fillColor=none;top=0;left=0;bottom=0;right=0;align=left;spacingLeft=2;overflow=hidden;fontSize=11;" vertex="1" parent="SCjaSDXvU5PeOb5kUxLL-111">
          <mxGeometry width="72" height="21" as="geometry">
            <mxRectangle width="72" height="21" as="alternateBounds" />
          </mxGeometry>
        </mxCell>
        <mxCell id="SCjaSDXvU5PeOb5kUxLL-113" value="ICollection(string)" style="shape=partialRectangle;connectable=0;fillColor=none;top=0;left=0;bottom=0;right=0;align=left;spacingLeft=2;overflow=hidden;fontSize=11;" vertex="1" parent="SCjaSDXvU5PeOb5kUxLL-111">
          <mxGeometry x="72" width="114" height="21" as="geometry">
            <mxRectangle width="114" height="21" as="alternateBounds" />
          </mxGeometry>
        </mxCell>
        <mxCell id="SCjaSDXvU5PeOb5kUxLL-114" value="include" style="curved=1;startArrow=ERoneToMany;startSize=10;;endArrow=ERoneToMany;endSize=10;;exitX=0.41;exitY=1;entryX=0;entryY=0.32;rounded=0;" edge="1" parent="1" source="SCjaSDXvU5PeOb5kUxLL-2" target="SCjaSDXvU5PeOb5kUxLL-18">
          <mxGeometry relative="1" as="geometry">
            <Array as="points">
              <mxPoint x="137" y="504" />
            </Array>
          </mxGeometry>
        </mxCell>
        <mxCell id="SCjaSDXvU5PeOb5kUxLL-115" value="reference" style="curved=1;startArrow=ERzeroToMany;startSize=10;;endArrow=ERzeroToMany;endSize=10;;exitX=0.96;exitY=0.58;entryX=0.45;entryY=0;rounded=0;" edge="1" parent="1" source="SCjaSDXvU5PeOb5kUxLL-18" target="SCjaSDXvU5PeOb5kUxLL-43">
          <mxGeometry relative="1" as="geometry">
            <Array as="points">
              <mxPoint x="1042" y="804" />
            </Array>
          </mxGeometry>
        </mxCell>
        <mxCell id="SCjaSDXvU5PeOb5kUxLL-116" value="reference" style="curved=1;startArrow=ERzeroToMany;startSize=10;;endArrow=ERzeroToMany;endSize=10;;exitX=0.48;exitY=1;entryX=0;entryY=0.16;rounded=0;" edge="1" parent="1" source="SCjaSDXvU5PeOb5kUxLL-18" target="SCjaSDXvU5PeOb5kUxLL-62">
          <mxGeometry relative="1" as="geometry">
            <Array as="points">
              <mxPoint x="431" y="804" />
            </Array>
          </mxGeometry>
        </mxCell>
        <mxCell id="SCjaSDXvU5PeOb5kUxLL-117" value="include" style="curved=1;startArrow=ERoneToMany;startSize=10;;endArrow=ERoneToMany;endSize=10;;exitX=0.93;exitY=0.63;entryX=0.87;entryY=0.16;rounded=0;" edge="1" parent="1" source="SCjaSDXvU5PeOb5kUxLL-75" target="SCjaSDXvU5PeOb5kUxLL-62">
          <mxGeometry relative="1" as="geometry">
            <Array as="points">
              <mxPoint x="870" y="270" />
              <mxPoint x="870" y="804" />
            </Array>
          </mxGeometry>
        </mxCell>
        <mxCell id="SCjaSDXvU5PeOb5kUxLL-118" value="inherit" style="curved=1;startArrow=ERmandOne;startSize=10;;endArrow=ERmandOne;endSize=10;;exitX=0.5;exitY=1;entryX=0.48;entryY=0;rounded=0;" edge="1" parent="1" source="SCjaSDXvU5PeOb5kUxLL-100" target="SCjaSDXvU5PeOb5kUxLL-18">
          <mxGeometry relative="1" as="geometry">
            <Array as="points" />
          </mxGeometry>
        </mxCell>
        <mxCell id="SCjaSDXvU5PeOb5kUxLL-119" value="inherit" style="curved=1;startArrow=ERmandOne;startSize=10;;endArrow=ERmandOne;endSize=10;;exitX=0.44;exitY=1;entryX=0.96;entryY=0.3;rounded=0;" edge="1" parent="1" source="SCjaSDXvU5PeOb5kUxLL-110" target="SCjaSDXvU5PeOb5kUxLL-18">
          <mxGeometry relative="1" as="geometry">
            <Array as="points">
              <mxPoint x="688" y="504" />
            </Array>
          </mxGeometry>
        </mxCell>
        <mxCell id="SCjaSDXvU5PeOb5kUxLL-120" value="reference" style="curved=1;startArrow=ERmandOne;startSize=10;;endArrow=ERmandOne;endSize=10;;exitX=0;exitY=0.63;entryX=0.41;entryY=0;rounded=0;" edge="1" parent="1" source="SCjaSDXvU5PeOb5kUxLL-75" target="SCjaSDXvU5PeOb5kUxLL-2">
          <mxGeometry relative="1" as="geometry">
            <Array as="points">
              <mxPoint x="137" y="270" />
            </Array>
          </mxGeometry>
        </mxCell>
      </root>
    </mxGraphModel>
  </diagram>
</mxfile>
